<?xml version="1.0" encoding="UTF-8" standalone="no"?>
<svg
   xmlns:dc="http://purl.org/dc/elements/1.1/"
   xmlns:cc="http://creativecommons.org/ns#"
   xmlns:rdf="http://www.w3.org/1999/02/22-rdf-syntax-ns#"
   xmlns:svg="http://www.w3.org/2000/svg"
   xmlns="http://www.w3.org/2000/svg"
   xmlns:sodipodi="http://sodipodi.sourceforge.net/DTD/sodipodi-0.dtd"
   xmlns:inkscape="http://www.inkscape.org/namespaces/inkscape"
   version="1.1"
   id="Layer_1"
   x="0px"
   y="0px"
   viewBox="0 0 150 150"
   enable-background="new 0 0 1685.071 1685.155"
   xml:space="preserve"
   sodipodi:docname="logo.svg"
   width="150"
   height="150"
   inkscape:version="0.92.2 2405546, 2018-03-11"
   inkscape:export-filename="./logo.png"
   inkscape:export-xdpi="95.25"
   inkscape:export-ydpi="95.25"><metadata
     id="metadata9"><rdf:RDF><cc:Work
         rdf:about=""><dc:format>image/svg+xml</dc:format><dc:type
           rdf:resource="http://purl.org/dc/dcmitype/StillImage" /><dc:title></dc:title></cc:Work></rdf:RDF></metadata><defs
     id="defs7"><linearGradient
       id="linearGradient2503-4-2-6"><stop
         offset="0"
         style="stop-color:#585858"
         id="stop2505-8-4-8" /><stop
         offset="1"
         style="stop-color:#f9f9f9"
         id="stop2507-8-8-6" /></linearGradient><linearGradient
       id="linearGradient10097-0"><stop
         offset="0"
         style="stop-color:#232323"
         id="stop10099-3" /><stop
         offset=".23462"
         style="stop-color:#282828"
         id="stop10111-7" /><stop
         offset=".41869"
         style="stop-color:#313131"
         id="stop10109-2" /><stop
         offset=".61685"
         style="stop-color:#3c3c3c"
         id="stop10107-0" /><stop
         offset=".79369"
         style="stop-color:#3a3a3a"
         id="stop10105-9" /><stop
         offset="1"
         style="stop-color:#2f2f2f"
         id="stop10101-9" /></linearGradient></defs><sodipodi:namedview
     pagecolor="#ffffff"
     bordercolor="#666666"
     borderopacity="1"
     objecttolerance="10"
     gridtolerance="10"
     guidetolerance="10"
     inkscape:pageopacity="0"
     inkscape:pageshadow="2"
     inkscape:window-width="1366"
     inkscape:window-height="704"
     id="namedview5"
     showgrid="false"
     fit-margin-top="0"
     fit-margin-left="0"
     fit-margin-right="0"
     fit-margin-bottom="0"
     inkscape:zoom="2.2407434"
     inkscape:cx="42.790242"
     inkscape:cy="70.151883"
     inkscape:window-x="0"
     inkscape:window-y="27"
     inkscape:window-maximized="1"
     inkscape:current-layer="g4501"
     inkscape:document-rotation="0"
     inkscape:snap-grids="true"
     inkscape:snap-to-guides="true"
     inkscape:snap-others="false"
     inkscape:snap-nodes="false"
     inkscape:snap-global="false" /><g
     id="g4501"
     transform="matrix(0.08858736,0,0,0.08858736,0.63255695,0.63255695)"><rect
       style="fill:#fff000;fill-opacity:1;stroke-width:9.30111408"
       y="-7.1404409"
       x="-7.1404619"
       height="1693.2438"
       width="1693.2438"
       id="rect3796" /><path
       inkscape:connector-curvature="0"
       id="path3763-3"
       d="m 833.63042,374.46771 c -53.01227,-1.02727 -106.76388,5.26648 -160.21755,18.93767 -179.57415,45.92712 -307.62748,158.77679 -360.38018,317.61349 -29.10188,87.62491 -19.18666,216.14238 23.32738,302.50093 57.46355,116.7249 189.86765,221.4929 327.83471,259.421 69.1148,19.0016 232.63222,18.8321 306.13815,-0.3136 88.66647,-23.0946 177.81277,-73.9452 243.43067,-138.8344 217.7707,-215.35225 157.8475,-544.70537 -126.2304,-693.98387 -79.2821,-41.66178 -165.54859,-63.62909 -253.90278,-65.34122 z m -29.66051,60.45001 c 75.20532,-0.55411 156.62506,11.41741 211.57509,34.0502 87.8969,36.20333 159.5758,92.6288 206.2449,162.34973 50.8675,75.9929 66.4962,135.01989 60.5128,228.2553 -11.3493,176.84445 -150.973,319.03265 -356.11586,362.51205 -37.68856,7.9878 -89.36411,14.2102 -114.81743,13.8583 C 523.95176,1231.9749 296.19874,983.55825 363.51228,747.51466 405.19191,601.36024 515.50136,498.3552 682.38006,449.84213 c 33.57643,-9.76089 76.46651,-14.59192 121.58985,-14.92441 z m 177.46233,256.47371 c -36.42005,2.33079 -72.82055,30.45255 -87.91613,83.08742 -13.31697,46.43455 3.60673,105.95721 37.74996,132.8145 35.82962,28.1835 67.3935,26.6265 105.22323,-5.2047 37.5833,-31.62446 49.8052,-82.89969 33.0469,-138.83443 -15.1893,-50.69671 -51.6841,-74.19356 -88.10396,-71.86279 z m -370.09958,0.87792 c -32.29741,-3.61512 -63.54416,13.84893 -82.64875,50.79307 -31.17645,60.28864 -10.66744,148.89406 40.19549,173.57433 70.64956,34.2818 129.36565,-18.86672 129.36565,-117.07488 0,-38.87751 -5.47396,-53.06936 -30.03679,-77.63187 -17.73905,-17.73904 -37.49745,-27.4916 -56.8756,-29.66065 z"
       style="fill:#333333;stroke-width:10.28428078" /></g></svg>